<?xml version="1.0" encoding="UTF-8" standalone="yes"?>
<svg version="1.2" viewBox="0 0 500 500" baseProfile="tiny-ps" xmlns="http://www.w3.org/2000/svg">
<title>ETAMADE</title>
<path d="M100.232,243.546H70.722c-0.002,0-0.004,0.002-0.003,0.004   c1.06,5.298,5.139,8.152,10.844,8.152c4.075,0,8.072-1.792,10.272-4.889c0.001-0.001,0.003-0.002,0.004-0.001l6.355,4.807   c0.001,0.001,0.002,0.003,0.001,0.004c-3.508,5.543-10.273,8.64-17.203,8.64c-11.335,0-19.978-8.156-19.978-20.059   c0-11.904,9.052-19.978,19.978-19.978s19.407,7.746,19.407,19.65c0,1.058-0.081,2.282-0.162,3.667   C100.235,243.544,100.234,243.546,100.232,243.546z M91.017,236.939c0.002,0,0.003-0.002,0.003-0.004   c-0.573-5.217-4.649-8.314-9.948-8.314c-5.299,0-9.213,2.526-10.354,8.314c0,0.002,0.001,0.004,0.003,0.004H91.017z"/>
<path d="M135.625,221.203v7.5c0,0.002-0.001,0.003-0.003,0.003h-8.065   c-0.002,0-0.003,0.001-0.003,0.003v30.574c0,0.002-0.001,0.003-0.003,0.003h-9.452c-0.002,0-0.003-0.001-0.003-0.003v-30.574   c0-0.002-0.001-0.003-0.003-0.003h-6.844c-0.002,0-0.003-0.001-0.003-0.003v-7.497c0-0.002,0.001-0.003,0.003-0.003h6.844   c0.002,0,0.003-0.001,0.003-0.003v-14.019c0-0.002,0.001-0.003,0.003-0.003h9.452c0.002,0,0.003,0.001,0.003,0.003V221.2   c0,0.002,0.001,0.003,0.003,0.003H135.625L135.625,221.203z"/>
<path d="M177.293,221.203h9.455c0.002,0,0.003,0.001,0.003,0.003   v38.073c0,0.002-0.001,0.003-0.003,0.003h-9.452c-0.002,0-0.003-0.001-0.003-0.003v-5.951c-2.527,4.157-7.584,6.931-13.047,6.931   c-10.192,0-18.348-8.237-18.348-20.059s7.828-19.978,18.591-19.978c5.22,0,10.273,2.283,12.804,6.278V221.2V221.203z    M177.131,240.204c0-10.146-13.011-15.753-19.718-6.408c-1.015,1.414-1.717,3.07-1.946,4.796   c-0.902,6.797,4.003,12.866,10.738,12.866C172.077,251.458,177.131,246.567,177.131,240.204L177.131,240.204z"/>
<path d="M252.477,220.226c-3.912,0-11.002,3.15-13.011,9.68   c-0.001,0.003-0.004,0.003-0.005,0c-1.455-4.272-4.211-7.263-8.129-8.703c-1.749-0.643-3.728-0.978-5.926-0.978   c-3.914,0-9.867,2.202-11.823,7.012v-6.032c0-0.002-0.001-0.003-0.003-0.003h-9.452c-0.002,0-0.003,0.001-0.003,0.003   l-0.064,19.306c0,0.002,0.001,0.003,0.003,0.003h9.455l0.064-1.455c0-7.34,5.382-9.867,9.705-9.867   c4.323,0,7.909,3.261,7.909,9.377l-0.064,1.945l0,0v18.751c0,0.002,0.001,0.003,0.003,0.003h9.452c0.002,0,0.003-0.001,0.003-0.003   l0.064-20.205c0-7.337,5.382-9.867,9.705-9.867s7.909,3.261,7.909,9.377l-0.064,20.696c0,0.002,0.001,0.003,0.003,0.003h9.452   c0.002,0,0.003-0.001,0.003-0.003l0.064-21.345C267.726,226.832,262.263,220.226,252.477,220.226L252.477,220.226z"/>
<path d="M313.494,221.203h9.455c0.002,0,0.003,0.001,0.003,0.003   v38.073c0,0.002-0.001,0.003-0.003,0.003h-9.452c-0.002,0-0.003-0.001-0.003-0.003v-5.951c-2.527,4.157-7.584,6.931-13.047,6.931   c-10.192,0-18.348-8.237-18.348-20.059s7.828-19.978,18.591-19.978c5.22,0,10.273,2.283,12.804,6.278V221.2V221.203z    M313.332,240.204c0-10.146-13.01-15.753-19.718-6.408c-1.015,1.414-1.717,3.07-1.946,4.796   c-0.902,6.797,4.003,12.866,10.738,12.866C308.278,251.458,313.332,246.567,313.332,240.204z"/>
<path d="M369.434,200.491h9.452c0.002,0,0.003,0.001,0.003,0.003   v58.785c0,0.002-0.001,0.003-0.003,0.003h-9.452c-0.002,0-0.003-0.001-0.003-0.003v-5.054c-2.608,3.995-7.99,6.035-12.638,6.035   c-10.03,0-18.754-7.909-18.754-20.059s8.643-19.978,18.673-19.978c4.807,0,10.104,1.956,12.714,5.946   c0.002,0.002,0.005,0.001,0.005-0.001v-25.673C369.431,200.492,369.432,200.491,369.434,200.491z M369.268,240.119   c0-6.688-5.544-11.089-11.007-11.089c-5.872,0-10.683,4.729-10.683,11.089c0,6.359,4.81,11.335,10.683,11.335   C364.133,251.455,369.268,246.807,369.268,240.119z"/>
<path d="M433.198,243.546h-29.514c-0.002,0-0.004,0.002-0.003,0.004   c1.06,5.298,5.139,8.152,10.844,8.152c4.075,0,8.072-1.792,10.272-4.889c0.001-0.001,0.003-0.002,0.004-0.001l6.355,4.807   c0.001,0.001,0.002,0.003,0.001,0.004c-3.508,5.543-10.273,8.64-17.203,8.64c-11.335,0-19.978-8.156-19.978-20.059   c0-11.904,9.052-19.978,19.978-19.978c10.926,0,19.407,7.746,19.407,19.65C433.36,240.934,433.279,242.159,433.198,243.546   L433.198,243.546z M423.98,236.939c0.002,0,0.003-0.002,0.003-0.004c-0.573-5.217-4.649-8.314-9.948-8.314   c-5.299,0-9.213,2.526-10.354,8.314c0,0.002,0.001,0.004,0.003,0.004H423.98z"/>
</svg>
