<?xml version="1.0" encoding="UTF-8"?>
<svg xmlns="http://www.w3.org/2000/svg" viewBox="0 0 251.06 41.42">
    <path d="M250.3,5.37c0,1.15-.41,2.14-1.22,2.95-.82,.82-1.8,1.22-2.95,1.22s-2.14-.41-2.95-1.22c-.82-.82-1.22-1.8-1.22-2.95s.41-2.14,1.22-2.95,1.8-1.22,2.95-1.22,2.14,.41,2.95,1.22,1.22,1.8,1.22,2.95Zm-.56,0c0-1-.35-1.85-1.06-2.57-.71-.71-1.56-1.07-2.56-1.07s-1.85,.36-2.56,1.07c-.71,.71-1.06,1.57-1.06,2.57s.35,1.85,1.06,2.57c.71,.71,1.56,1.07,2.56,1.07s1.85-.36,2.56-1.07c.71-.71,1.06-1.57,1.06-2.57Zm-.93,2.12h-1.08l-1.6-1.71h-.78v1.71h-.8V3.08h1.51c.3,0,.55,.01,.75,.04,.2,.03,.39,.09,.58,.19,.2,.11,.35,.24,.45,.4s.14,.35,.14,.59c0,.31-.09,.57-.27,.78-.18,.21-.43,.37-.75,.49l1.85,1.93Zm-1.7-3.15c0-.12-.02-.22-.07-.31-.04-.09-.12-.16-.23-.22-.1-.05-.21-.09-.32-.11-.11-.02-.25-.02-.42-.02h-.72v1.49h.61c.2,0,.37-.02,.52-.05,.14-.03,.26-.08,.36-.16,.1-.08,.17-.17,.21-.26,.04-.1,.06-.22,.06-.36Z"/>
    <path d="M250.24,30.18h-19.84s0,0,0,0c.71,3.56,3.46,5.48,7.29,5.48,2.74,0,5.43-1.2,6.91-3.29,0,0,0,0,0,0l4.27,3.23s0,0,0,0c-2.36,3.73-6.91,5.81-11.57,5.81-7.62,0-13.43-5.48-13.43-13.49s6.09-13.43,13.43-13.43,13.05,5.21,13.05,13.21c0,.71-.05,1.54-.11,2.47h0Zm-6.2-4.44s0,0,0,0c-.39-3.51-3.13-5.59-6.69-5.59s-6.19,1.7-6.96,5.59c0,0,0,0,0,0h13.65Z"/>
    <path d="M207.37,1.23h6.36s0,0,0,0V40.75s0,0,0,0h-6.36s0,0,0,0v-3.4c-1.75,2.69-5.37,4.06-8.5,4.06-6.74,0-12.61-5.32-12.61-13.49s5.81-13.43,12.55-13.43c3.23,0,6.79,1.32,8.55,4,0,0,0,0,0,0V1.23s0,0,0,0Zm-.11,26.64c0-4.5-3.73-7.46-7.4-7.46-3.95,0-7.18,3.18-7.18,7.46s3.23,7.62,7.18,7.62,7.4-3.13,7.4-7.62Z"/>
    <path d="M169.76,15.15h6.36s0,0,0,0v25.6s0,0,0,0h-6.36s0,0,0,0v-4c-1.7,2.8-5.1,4.66-8.77,4.66-6.85,0-12.34-5.54-12.34-13.49s5.26-13.43,12.5-13.43c3.51,0,6.91,1.54,8.61,4.22v-3.56h0Zm-.11,12.78c0-6.82-8.75-10.59-13.26-4.31-.68,.95-1.15,2.06-1.31,3.22-.61,4.57,2.69,8.65,7.22,8.65,3.95,0,7.35-3.29,7.35-7.57Z"/>
    <path d="M128.73,14.5c-2.63,0-7.4,2.12-8.75,6.51,0,0,0,0,0,0-.98-2.87-2.83-4.88-5.47-5.85-1.18-.43-2.51-.66-3.98-.66-2.63,0-6.63,1.48-7.95,4.71v-4.06s0,0,0,0h-6.36s0,0,0,0l-.04,12.98s0,0,0,0h6.36l.04-.98c0-4.94,3.62-6.63,6.53-6.63s5.32,2.19,5.32,6.3l-.04,1.31h0v12.61s0,0,0,0h6.36s0,0,0,0l.04-13.59c0-4.93,3.62-6.63,6.53-6.63s5.32,2.19,5.32,6.3l-.04,13.92s0,0,0,0h6.36s0,0,0,0l.04-14.35c0-7.46-3.67-11.9-10.25-11.9h0Z"/>
    <path d="M78.18,15.15h6.36s0,0,0,0v25.6s0,0,0,0h-6.36s0,0,0,0v-4c-1.7,2.8-5.1,4.66-8.77,4.66-6.85,0-12.34-5.54-12.34-13.49s5.26-13.43,12.5-13.43c3.51,0,6.91,1.54,8.61,4.22v-3.56h0Zm-.11,12.78c0-6.82-8.75-10.59-13.26-4.31-.68,.95-1.15,2.06-1.31,3.22-.61,4.57,2.69,8.65,7.22,8.65,3.95,0,7.35-3.29,7.35-7.57h0Z"/>
    <path d="M50.17,15.15v5.04s0,0,0,0h-5.42s0,0,0,0v20.56s0,0,0,0h-6.36s0,0,0,0V20.2s0,0,0,0h-4.6s0,0,0,0v-5.04s0,0,0,0h4.6s0,0,0,0V5.73s0,0,0,0h6.36s0,0,0,0V15.15s0,0,0,0h5.42Z"/>
    <path d="M26.37,30.18H6.53s0,0,0,0c.71,3.56,3.46,5.48,7.29,5.48,2.74,0,5.43-1.2,6.91-3.29,0,0,0,0,0,0l4.27,3.23s0,0,0,0c-2.36,3.73-6.91,5.81-11.57,5.81C5.81,41.42,0,35.93,0,27.93S6.09,14.5,13.43,14.5s13.05,5.21,13.05,13.21c0,.71-.05,1.53-.11,2.47,0,0,0,0,0,0Zm-6.2-4.44s0,0,0,0c-.39-3.51-3.13-5.59-6.69-5.59s-6.19,1.7-6.96,5.59c0,0,0,0,0,0h13.65Z"/>
</svg>